<svg height="512" viewBox="0 0 512 512" width="512" xmlns="http://www.w3.org/2000/svg"><g><g><path d="m69.35 328a200.087 200.087 0 0 0 373.3 0" fill="#003f8a"/><path d="m69.35 184a200.087 200.087 0 0 1 373.3 0" fill="#1a6fb0"/><path d="m113.08 328a160.058 160.058 0 0 0 285.84 0" fill="#5aaae7"/><path d="m113.08 184a160.058 160.058 0 0 1 285.84 0" fill="#5aaae7"/><path d="m177.4 328c14.49 52.21 44.24 88 78.6 88s64.11-35.79 78.6-88" fill="#c2dff6"/><path d="m177.4 184c14.49-52.21 44.24-88 78.6-88s64.11 35.79 78.6 88" fill="#c2dff6"/><path d="m24 184h464v144h-464z" fill="#91cc04"/><g fill="#e0e0e2"><path d="m328 288 40-72"/><path d="m368 288 40-72"/><circle cx="296" cy="240" r="8"/><circle cx="296" cy="280" r="8"/></g></g><g><path d="m488 176h-39.95a208.07 208.07 0 0 0 -384.1 0h-39.95a8 8 0 0 0 -8 8v144a8 8 0 0 0 8 8h39.95a208.07 208.07 0 0 0 384.1 0h39.95a8 8 0 0 0 8-8v-144a8 8 0 0 0 -8-8zm-341.81-77.52a192.075 192.075 0 0 1 284.4 77.52h-26.84a168.008 168.008 0 0 0 -295.5 0h-26.84a191.644 191.644 0 0 1 64.78-77.52zm160.3 14.14a150.536 150.536 0 0 1 30.26 14.58 152.506 152.506 0 0 1 29.06 23.72 174.6 174.6 0 0 1 -29.38 12.76c-7.8-21.01-18.04-38.33-29.94-51.06zm14.54 55.57a263.149 263.149 0 0 1 -57.03 7.69v-71.07c22.58 4.53 43.6 27.99 57.03 63.38zm55.4-4.91a153.156 153.156 0 0 1 8.82 12.72h-35.81a180.2 180.2 0 0 0 26.99-12.72zm-230.24-12.36a152.506 152.506 0 0 1 29.06-23.72 150.536 150.536 0 0 1 30.26-14.58c-11.9 12.73-22.14 30.05-29.94 51.06a174.6 174.6 0 0 1 -29.38-12.76zm16.37 25.08h-35.81a153.156 153.156 0 0 1 8.82-12.72 180.2 180.2 0 0 0 26.99 12.72zm85.44-71.19v71.07a263.149 263.149 0 0 1 -57.03-7.69c13.43-35.39 34.45-58.85 57.03-63.38zm117.81 308.71a192.075 192.075 0 0 1 -284.4-77.52h26.84a168.008 168.008 0 0 0 295.5 0h26.84a191.644 191.644 0 0 1 -64.78 77.52zm-160.3-14.14a150.536 150.536 0 0 1 -30.26-14.58 153 153 0 0 1 -28.59-23.21 173.376 173.376 0 0 1 29.17-12.58c7.76 20.7 17.91 37.77 29.68 50.37zm-14.26-54.86a263.3 263.3 0 0 1 56.75-7.64v70.31c-22.43-4.5-43.31-27.68-56.75-62.67zm-55.27 4.74a152.275 152.275 0 0 1 -9.23-13.26h37.89a181.615 181.615 0 0 0 -28.66 13.26zm229.36 12.33a153 153 0 0 1 -28.59 23.21 150.536 150.536 0 0 1 -30.26 14.58c11.77-12.6 21.92-29.67 29.68-50.37a173.376 173.376 0 0 1 29.17 12.58zm-17.98-25.59h37.89a152.275 152.275 0 0 1 -9.23 13.26 181.615 181.615 0 0 0 -28.66-13.26zm-83.36 71.19v-70.31a263.3 263.3 0 0 1 56.75 7.64c-13.44 34.99-34.32 58.17-56.75 62.67zm216-87.19h-448v-128h448z"/><path d="m136 248h-24v-32a8 8 0 0 0 -16 0v72a8 8 0 0 0 16 0v-24h16v24a8 8 0 0 0 16 0v-32a8 8 0 0 0 -8-8z"/><path d="m264 248h-24a8 8 0 0 0 -16 0v48a8 8 0 0 0 16 0v-8h24a8 8 0 0 0 8-8v-24a8 8 0 0 0 -8-8zm-8 24h-16v-8h16z"/><path d="m168 224v-8a8 8 0 0 0 -16 0v8a8 8 0 0 0 0 16v48a8 8 0 0 0 16 0v-48a8 8 0 0 0 0-16z"/><path d="m208 224v-8a8 8 0 0 0 -16 0v8a8 8 0 0 0 0 16v48a8 8 0 0 0 16 0v-48a8 8 0 0 0 0-16z"/><path d="m371.885 209.007a8 8 0 0 0 -10.878 3.108l-40 72a8 8 0 1 0 13.986 7.77l40-72a8 8 0 0 0 -3.108-10.878z"/><path d="m411.885 209.007a8 8 0 0 0 -10.878 3.108l-40 72a8 8 0 1 0 13.986 7.77l40-72a8 8 0 0 0 -3.108-10.878z"/><circle cx="296" cy="240" r="8"/><circle cx="296" cy="280" r="8"/></g></g></svg>